<?xml version="1.0" encoding="UTF-8" standalone="no"?>
<!-- Created with Inkscape (http://www.inkscape.org/) -->

<svg
   xmlns:dc="http://purl.org/dc/elements/1.1/"
   xmlns:cc="http://creativecommons.org/ns#"
   xmlns:rdf="http://www.w3.org/1999/02/22-rdf-syntax-ns#"
   xmlns:svg="http://www.w3.org/2000/svg"
   xmlns="http://www.w3.org/2000/svg"
   xmlns:sodipodi="http://sodipodi.sourceforge.net/DTD/sodipodi-0.dtd"
   xmlns:inkscape="http://www.inkscape.org/namespaces/inkscape"
   width="210mm"
   height="297mm"
   viewBox="0 0 210 297"
   version="1.1"
   id="svg8"
   inkscape:version="0.92.2 5c3e80d, 2017-08-06"
   sodipodi:docname="home.svg">
  <defs
     id="defs2">
    <clipPath
       clipPathUnits="userSpaceOnUse"
       id="clipPath1084">
      <path
         id="path1086"
         d="m -55.940471,120.48511 a 53.294642,53.294642 0 0 1 -53.294649,53.29464 53.294642,53.294642 0 0 1 -53.29464,-53.29464 53.294642,53.294642 0 0 1 53.29464,-53.294646 53.294642,53.294642 0 0 1 53.294649,53.294646 z"
         style="opacity:1;fill:#568da8;fill-opacity:1;stroke:none;stroke-width:0.26458332;stroke-linecap:round;stroke-linejoin:round;stroke-miterlimit:4;stroke-dasharray:none;stroke-opacity:1"
         inkscape:connector-curvature="0" />
    </clipPath>
    <clipPath
       clipPathUnits="userSpaceOnUse"
       id="clipPath1088">
      <path
         id="path1090"
         d="m -55.940471,120.48511 a 53.294642,53.294642 0 0 1 -53.294649,53.29464 53.294642,53.294642 0 0 1 -53.29464,-53.29464 53.294642,53.294642 0 0 1 53.29464,-53.294646 53.294642,53.294642 0 0 1 53.294649,53.294646 z"
         style="opacity:1;fill:#568da8;fill-opacity:1;stroke:none;stroke-width:0.26458332;stroke-linecap:round;stroke-linejoin:round;stroke-miterlimit:4;stroke-dasharray:none;stroke-opacity:1"
         inkscape:connector-curvature="0" />
    </clipPath>
    <clipPath
       clipPathUnits="userSpaceOnUse"
       id="clipPath1092">
      <path
         id="path1094"
         d="m -55.940471,120.48511 a 53.294642,53.294642 0 0 1 -53.294649,53.29464 53.294642,53.294642 0 0 1 -53.29464,-53.29464 53.294642,53.294642 0 0 1 53.29464,-53.294646 53.294642,53.294642 0 0 1 53.294649,53.294646 z"
         style="opacity:1;fill:#568da8;fill-opacity:1;stroke:none;stroke-width:0.26458332;stroke-linecap:round;stroke-linejoin:round;stroke-miterlimit:4;stroke-dasharray:none;stroke-opacity:1"
         inkscape:connector-curvature="0" />
    </clipPath>
    <clipPath
       clipPathUnits="userSpaceOnUse"
       id="clipPath1096">
      <path
         id="path1098"
         d="m -55.940471,120.48511 a 53.294642,53.294642 0 0 1 -53.294649,53.29464 53.294642,53.294642 0 0 1 -53.29464,-53.29464 53.294642,53.294642 0 0 1 53.29464,-53.294646 53.294642,53.294642 0 0 1 53.294649,53.294646 z"
         style="opacity:1;fill:#568da8;fill-opacity:1;stroke:none;stroke-width:0.26458332;stroke-linecap:round;stroke-linejoin:round;stroke-miterlimit:4;stroke-dasharray:none;stroke-opacity:1"
         inkscape:connector-curvature="0" />
    </clipPath>
    <clipPath
       clipPathUnits="userSpaceOnUse"
       id="clipPath1100">
      <path
         id="path1102"
         d="m -55.940471,120.48511 a 53.294642,53.294642 0 0 1 -53.294649,53.29464 53.294642,53.294642 0 0 1 -53.29464,-53.29464 53.294642,53.294642 0 0 1 53.29464,-53.294646 53.294642,53.294642 0 0 1 53.294649,53.294646 z"
         style="opacity:1;fill:#568da8;fill-opacity:1;stroke:none;stroke-width:0.26458332;stroke-linecap:round;stroke-linejoin:round;stroke-miterlimit:4;stroke-dasharray:none;stroke-opacity:1"
         inkscape:connector-curvature="0" />
    </clipPath>
    <clipPath
       clipPathUnits="userSpaceOnUse"
       id="clipPath1104">
      <path
         id="path1106"
         d="m -55.940471,120.48511 a 53.294642,53.294642 0 0 1 -53.294649,53.29464 53.294642,53.294642 0 0 1 -53.29464,-53.29464 53.294642,53.294642 0 0 1 53.29464,-53.294646 53.294642,53.294642 0 0 1 53.294649,53.294646 z"
         style="opacity:1;fill:#568da8;fill-opacity:1;stroke:none;stroke-width:0.26458332;stroke-linecap:round;stroke-linejoin:round;stroke-miterlimit:4;stroke-dasharray:none;stroke-opacity:1"
         inkscape:connector-curvature="0" />
    </clipPath>
    <clipPath
       clipPathUnits="userSpaceOnUse"
       id="clipPath1108">
      <path
         id="path1110"
         d="m -55.940471,120.48511 a 53.294642,53.294642 0 0 1 -53.294649,53.29464 53.294642,53.294642 0 0 1 -53.29464,-53.29464 53.294642,53.294642 0 0 1 53.29464,-53.294646 53.294642,53.294642 0 0 1 53.294649,53.294646 z"
         style="opacity:1;fill:#568da8;fill-opacity:1;stroke:none;stroke-width:0.26458332;stroke-linecap:round;stroke-linejoin:round;stroke-miterlimit:4;stroke-dasharray:none;stroke-opacity:1"
         inkscape:connector-curvature="0" />
    </clipPath>
  </defs>
  <sodipodi:namedview
     id="base"
     pagecolor="#ffffff"
     bordercolor="#666666"
     borderopacity="1.0"
     inkscape:pageopacity="0.0"
     inkscape:pageshadow="2"
     inkscape:zoom="0.98994949"
     inkscape:cx="-342.17636"
     inkscape:cy="630.71068"
     inkscape:document-units="mm"
     inkscape:current-layer="layer1"
     showgrid="false"
     showborder="false"
     inkscape:window-width="1334"
     inkscape:window-height="786"
     inkscape:window-x="1624"
     inkscape:window-y="116"
     inkscape:window-maximized="0" />
  <metadata
     id="metadata5">
    <rdf:RDF>
      <cc:Work
         rdf:about="">
        <dc:format>image/svg+xml</dc:format>
        <dc:type
           rdf:resource="http://purl.org/dc/dcmitype/StillImage" />
        <dc:title></dc:title>
      </cc:Work>
    </rdf:RDF>
  </metadata>
  <g
     inkscape:label="Layer 1"
     inkscape:groupmode="layer"
     id="layer1">
    <path
       style="opacity:1;fill:#50557c;fill-opacity:1;stroke:#079da9;stroke-width:3.49178028;stroke-linecap:round;stroke-linejoin:round;stroke-miterlimit:4;stroke-dasharray:none;stroke-opacity:1"
       d="m -365,457.79883 -48.57031,53.92773 v 37.92969 c 0,2.22032 1.00935,4.00586 2.26562,4.00586 h 34.70508 c -0.74421,-0.37113 -1.25781,-1.13035 -1.25781,-2.02149 v -31.17968 c 0,-1.25632 1.01126,-2.26758 2.26758,-2.26758 h 21.17968 c 1.25632,0 2.26758,1.01126 2.26758,2.26758 v 31.17968 c 0,0.89114 -0.5136,1.65036 -1.25781,2.02149 h 34.70508 c 1.25633,0 2.26758,-1.78554 2.26758,-4.00586 v -37.92773 z"
       transform="scale(0.26458333)"
       id="rect872"
       inkscape:connector-curvature="0"
       sodipodi:nodetypes="ccsscsssssscsscc" />
    <path
       style="opacity:1;fill:#50557c;fill-opacity:1;stroke:#079da9;stroke-width:0.97393066;stroke-linecap:round;stroke-linejoin:round;stroke-miterlimit:4;stroke-dasharray:none;stroke-opacity:1"
       d="m -96.573171,115.3051 -19.801529,20.946 h 3.90359 l 15.897939,-17.771 15.898454,17.771 h 3.903585 z"
       id="path889"
       inkscape:connector-curvature="0"
       sodipodi:nodetypes="ccccccc" />
  </g>
</svg>
