<?xml version="1.0" encoding="UTF-8" standalone="no"?>
<!-- Created with Inkscape (http://www.inkscape.org/) -->

<svg
   xmlns:dc="http://purl.org/dc/elements/1.1/"
   xmlns:cc="http://creativecommons.org/ns#"
   xmlns:rdf="http://www.w3.org/1999/02/22-rdf-syntax-ns#"
   xmlns:svg="http://www.w3.org/2000/svg"
   xmlns="http://www.w3.org/2000/svg"
   xmlns:sodipodi="http://sodipodi.sourceforge.net/DTD/sodipodi-0.dtd"
   xmlns:inkscape="http://www.inkscape.org/namespaces/inkscape"
   width="210mm"
   height="297mm"
   viewBox="0 0 210 297"
   version="1.1"
   id="svg8"
   inkscape:version="0.92.2 5c3e80d, 2017-08-06"
   sodipodi:docname="logo.svg">
  <defs
     id="defs2">
    <filter
       inkscape:collect="always"
       style="color-interpolation-filters:sRGB"
       id="filter1024"
       x="-0.025904762"
       width="1.0518095"
       y="-0.022356164"
       height="1.0447123">
      <feGaussianBlur
         inkscape:collect="always"
         stdDeviation="1.5421429"
         id="feGaussianBlur1026" />
    </filter>
    <filter
       inkscape:collect="always"
       style="color-interpolation-filters:sRGB"
       id="filter1080"
       x="-0.0528"
       width="1.1056"
       y="-0.0528"
       height="1.1056">
      <feGaussianBlur
         inkscape:collect="always"
         stdDeviation="1.4136309"
         id="feGaussianBlur1082" />
    </filter>
    <clipPath
       clipPathUnits="userSpaceOnUse"
       id="clipPath1084">
      <path
         id="path1086"
         d="m -55.940471,120.48511 a 53.294642,53.294642 0 0 1 -53.294649,53.29464 53.294642,53.294642 0 0 1 -53.29464,-53.29464 53.294642,53.294642 0 0 1 53.29464,-53.294646 53.294642,53.294642 0 0 1 53.294649,53.294646 z"
         style="opacity:1;fill:#568da8;fill-opacity:1;stroke:none;stroke-width:0.26458332;stroke-linecap:round;stroke-linejoin:round;stroke-miterlimit:4;stroke-dasharray:none;stroke-opacity:1"
         inkscape:connector-curvature="0" />
    </clipPath>
    <clipPath
       clipPathUnits="userSpaceOnUse"
       id="clipPath1088">
      <path
         id="path1090"
         d="m -55.940471,120.48511 a 53.294642,53.294642 0 0 1 -53.294649,53.29464 53.294642,53.294642 0 0 1 -53.29464,-53.29464 53.294642,53.294642 0 0 1 53.29464,-53.294646 53.294642,53.294642 0 0 1 53.294649,53.294646 z"
         style="opacity:1;fill:#568da8;fill-opacity:1;stroke:none;stroke-width:0.26458332;stroke-linecap:round;stroke-linejoin:round;stroke-miterlimit:4;stroke-dasharray:none;stroke-opacity:1"
         inkscape:connector-curvature="0" />
    </clipPath>
    <clipPath
       clipPathUnits="userSpaceOnUse"
       id="clipPath1092">
      <path
         id="path1094"
         d="m -55.940471,120.48511 a 53.294642,53.294642 0 0 1 -53.294649,53.29464 53.294642,53.294642 0 0 1 -53.29464,-53.29464 53.294642,53.294642 0 0 1 53.29464,-53.294646 53.294642,53.294642 0 0 1 53.294649,53.294646 z"
         style="opacity:1;fill:#568da8;fill-opacity:1;stroke:none;stroke-width:0.26458332;stroke-linecap:round;stroke-linejoin:round;stroke-miterlimit:4;stroke-dasharray:none;stroke-opacity:1"
         inkscape:connector-curvature="0" />
    </clipPath>
    <clipPath
       clipPathUnits="userSpaceOnUse"
       id="clipPath1096">
      <path
         id="path1098"
         d="m -55.940471,120.48511 a 53.294642,53.294642 0 0 1 -53.294649,53.29464 53.294642,53.294642 0 0 1 -53.29464,-53.29464 53.294642,53.294642 0 0 1 53.29464,-53.294646 53.294642,53.294642 0 0 1 53.294649,53.294646 z"
         style="opacity:1;fill:#568da8;fill-opacity:1;stroke:none;stroke-width:0.26458332;stroke-linecap:round;stroke-linejoin:round;stroke-miterlimit:4;stroke-dasharray:none;stroke-opacity:1"
         inkscape:connector-curvature="0" />
    </clipPath>
    <clipPath
       clipPathUnits="userSpaceOnUse"
       id="clipPath1100">
      <path
         id="path1102"
         d="m -55.940471,120.48511 a 53.294642,53.294642 0 0 1 -53.294649,53.29464 53.294642,53.294642 0 0 1 -53.29464,-53.29464 53.294642,53.294642 0 0 1 53.29464,-53.294646 53.294642,53.294642 0 0 1 53.294649,53.294646 z"
         style="opacity:1;fill:#568da8;fill-opacity:1;stroke:none;stroke-width:0.26458332;stroke-linecap:round;stroke-linejoin:round;stroke-miterlimit:4;stroke-dasharray:none;stroke-opacity:1"
         inkscape:connector-curvature="0" />
    </clipPath>
    <clipPath
       clipPathUnits="userSpaceOnUse"
       id="clipPath1104">
      <path
         id="path1106"
         d="m -55.940471,120.48511 a 53.294642,53.294642 0 0 1 -53.294649,53.29464 53.294642,53.294642 0 0 1 -53.29464,-53.29464 53.294642,53.294642 0 0 1 53.29464,-53.294646 53.294642,53.294642 0 0 1 53.294649,53.294646 z"
         style="opacity:1;fill:#568da8;fill-opacity:1;stroke:none;stroke-width:0.26458332;stroke-linecap:round;stroke-linejoin:round;stroke-miterlimit:4;stroke-dasharray:none;stroke-opacity:1"
         inkscape:connector-curvature="0" />
    </clipPath>
    <clipPath
       clipPathUnits="userSpaceOnUse"
       id="clipPath1108">
      <path
         id="path1110"
         d="m -55.940471,120.48511 a 53.294642,53.294642 0 0 1 -53.294649,53.29464 53.294642,53.294642 0 0 1 -53.29464,-53.29464 53.294642,53.294642 0 0 1 53.29464,-53.294646 53.294642,53.294642 0 0 1 53.294649,53.294646 z"
         style="opacity:1;fill:#568da8;fill-opacity:1;stroke:none;stroke-width:0.26458332;stroke-linecap:round;stroke-linejoin:round;stroke-miterlimit:4;stroke-dasharray:none;stroke-opacity:1"
         inkscape:connector-curvature="0" />
    </clipPath>
  </defs>
  <sodipodi:namedview
     id="base"
     pagecolor="#ffffff"
     bordercolor="#666666"
     borderopacity="1.0"
     inkscape:pageopacity="0.0"
     inkscape:pageshadow="2"
     inkscape:zoom="1.4"
     inkscape:cx="-461.3606"
     inkscape:cy="560"
     inkscape:document-units="mm"
     inkscape:current-layer="layer1"
     showgrid="false"
     showborder="false"
     inkscape:window-width="1334"
     inkscape:window-height="786"
     inkscape:window-x="1624"
     inkscape:window-y="116"
     inkscape:window-maximized="0" />
  <metadata
     id="metadata5">
    <rdf:RDF>
      <cc:Work
         rdf:about="">
        <dc:format>image/svg+xml</dc:format>
        <dc:type
           rdf:resource="http://purl.org/dc/dcmitype/StillImage" />
        <dc:title></dc:title>
      </cc:Work>
    </rdf:RDF>
  </metadata>
  <g
     inkscape:label="Layer 1"
     inkscape:groupmode="layer"
     id="layer1">
    <g
       id="g1141"
       transform="matrix(0.29552688,0,0,0.29552688,-112.71682,121.44401)"
       inkscape:export-xdpi="101.60001"
       inkscape:export-ydpi="101.60001">
      <g
         transform="translate(2.5281535,-1.3898991)"
         id="g1127">
        <path
           id="path845"
           d="m -100.54167,99.318445 a 35.151784,35.151784 0 0 1 -35.15179,35.151795 35.151784,35.151784 0 0 1 -35.15178,-35.151795 35.151784,35.151784 0 0 1 35.15178,-35.15179 35.151784,35.151784 0 0 1 35.15179,35.15179 z"
           style="opacity:0.85;fill:#0b2940;fill-opacity:1;stroke:none;stroke-width:0.1745124;stroke-linecap:round;stroke-linejoin:round;stroke-miterlimit:4;stroke-dasharray:none;stroke-opacity:1;filter:url(#filter1024)"
           inkscape:connector-curvature="0"
           clip-path="url(#clipPath1108)" />
        <path
           id="path837"
           d="m -27.970234,110.65773 a 35.907739,35.907739 0 0 1 -35.907739,35.90774 35.907739,35.907739 0 0 1 -35.907744,-35.90774 35.907739,35.907739 0 0 1 35.907744,-35.907743 35.907739,35.907739 0 0 1 35.907739,35.907743 z"
           style="opacity:0.85;fill:#121a55;fill-opacity:1;stroke:none;stroke-width:0.17826536;stroke-linecap:round;stroke-linejoin:round;stroke-miterlimit:4;stroke-dasharray:none;stroke-opacity:1;filter:url(#filter1024)"
           inkscape:connector-curvature="0"
           clip-path="url(#clipPath1104)" />
        <path
           id="path841"
           d="m -76.351189,174.91368 a 25.324406,25.324406 0 0 1 -25.324401,25.3244 25.324406,25.324406 0 0 1 -25.32441,-25.3244 25.324406,25.324406 0 0 1 25.32441,-25.32441 25.324406,25.324406 0 0 1 25.324401,25.32441 z"
           style="opacity:0.85;fill:#551242;fill-opacity:1;stroke:none;stroke-width:0.12572399;stroke-linecap:round;stroke-linejoin:round;stroke-miterlimit:4;stroke-dasharray:none;stroke-opacity:1;filter:url(#filter1024)"
           inkscape:connector-curvature="0"
           clip-path="url(#clipPath1100)" />
        <path
           style="opacity:0.85;fill:#1a6e79;fill-opacity:1;stroke:none;stroke-width:0.15950058;stroke-linecap:round;stroke-linejoin:round;stroke-miterlimit:4;stroke-dasharray:none;stroke-opacity:1;filter:url(#filter1080)"
           d="m -64.255951,140.13988 a 32.127976,32.127976 0 0 1 -32.127976,32.12797 32.127976,32.127976 0 0 1 -32.127973,-32.12797 32.127976,32.127976 0 0 1 32.127973,-32.12798 32.127976,32.127976 0 0 1 32.127976,32.12798 z"
           id="path815"
           inkscape:connector-curvature="0"
           clip-path="url(#clipPath1096)" />
        <path
           id="path839"
           d="m -66.523807,85.711303 a 35.151786,35.151786 0 0 1 -35.151783,35.151777 35.151786,35.151786 0 0 1 -35.15179,-35.151777 35.151786,35.151786 0 0 1 35.15179,-35.15179 35.151786,35.151786 0 0 1 35.151783,35.15179 z"
           style="opacity:0.85;fill:#3c1255;fill-opacity:1;stroke:none;stroke-width:0.1745124;stroke-linecap:round;stroke-linejoin:round;stroke-miterlimit:4;stroke-dasharray:none;stroke-opacity:1;filter:url(#filter1024)"
           inkscape:connector-curvature="0"
           clip-path="url(#clipPath1092)" />
        <path
           id="path843"
           d="m -40.065474,146.94345 a 23.056548,23.056548 0 0 1 -23.056548,23.05654 23.056548,23.056548 0 0 1 -23.056545,-23.05654 23.056548,23.056548 0 0 1 23.056545,-23.05656 23.056548,23.056548 0 0 1 23.056548,23.05656 z"
           style="opacity:0.85;fill:#5a136e;fill-opacity:1;stroke:none;stroke-width:0.11446512;stroke-linecap:round;stroke-linejoin:round;stroke-miterlimit:4;stroke-dasharray:none;stroke-opacity:1;filter:url(#filter1024)"
           inkscape:connector-curvature="0"
           clip-path="url(#clipPath1088)" />
        <path
           id="path847"
           d="m -105.83333,149.2113 a 32.883929,32.883929 0 0 1 -32.88393,32.88393 32.883929,32.883929 0 0 1 -32.88393,-32.88393 32.883929,32.883929 0 0 1 32.88393,-32.88393 32.883929,32.883929 0 0 1 32.88393,32.88393 z"
           style="opacity:0.85;fill:#123c55;fill-opacity:1;stroke:none;stroke-width:0.16325355;stroke-linecap:round;stroke-linejoin:round;stroke-miterlimit:4;stroke-dasharray:none;stroke-opacity:1;filter:url(#filter1024)"
           inkscape:connector-curvature="0"
           clip-path="url(#clipPath1084)" />
      </g>
      <flowRoot
         transform="matrix(0.49415701,0,0,0.61750228,96.823138,-135.92135)"
         style="font-style:normal;font-variant:normal;font-weight:normal;font-stretch:normal;font-size:64px;line-height:125%;font-family:sans-serif;-inkscape-font-specification:'sans-serif, Normal';font-variant-ligatures:normal;font-variant-caps:normal;font-variant-numeric:normal;font-feature-settings:normal;text-align:center;letter-spacing:0px;word-spacing:0px;writing-mode:lr-tb;text-anchor:middle;fill:#0b8a94;fill-opacity:1;stroke:#4a3848;stroke-width:2.80957055;stroke-linecap:butt;stroke-linejoin:miter;stroke-miterlimit:4;stroke-dasharray:none;stroke-opacity:1"
         id="flowRoot1112"
         xml:space="preserve"><flowRegion
           style="font-style:normal;font-variant:normal;font-weight:normal;font-stretch:normal;font-size:64px;font-family:sans-serif;-inkscape-font-specification:'sans-serif, Normal';font-variant-ligatures:normal;font-variant-caps:normal;font-variant-numeric:normal;font-feature-settings:normal;text-align:center;writing-mode:lr-tb;text-anchor:middle;fill:#0b8a94;fill-opacity:1;stroke:#4a3848;stroke-width:2.80957055;stroke-miterlimit:4;stroke-dasharray:none;stroke-opacity:1"
           id="flowRegion1114"><rect
             style="font-style:normal;font-variant:normal;font-weight:normal;font-stretch:normal;font-size:64px;font-family:sans-serif;-inkscape-font-specification:'sans-serif, Normal';font-variant-ligatures:normal;font-variant-caps:normal;font-variant-numeric:normal;font-feature-settings:normal;text-align:center;writing-mode:lr-tb;text-anchor:middle;fill:#0b8a94;fill-opacity:1;stroke:#4a3848;stroke-width:2.80957055;stroke-miterlimit:4;stroke-dasharray:none;stroke-opacity:1"
             y="376.80539"
             x="-522.85712"
             height="177.14285"
             width="214.28572"
             id="rect1116" /></flowRegion><flowPara
           style="font-style:normal;font-variant:normal;font-weight:normal;font-stretch:normal;font-size:96px;font-family:'Helvetica Neue';-inkscape-font-specification:'Helvetica Neue, Normal';font-variant-ligatures:normal;font-variant-caps:normal;font-variant-numeric:normal;font-feature-settings:normal;text-align:center;writing-mode:lr-tb;text-anchor:middle;fill:#0b8a94;fill-opacity:1;stroke:#4a3848;stroke-width:2.80957055;stroke-miterlimit:4;stroke-dasharray:none;stroke-opacity:1"
           id="flowPara1118">FK</flowPara></flowRoot>    </g>
  </g>
</svg>
